# xmcd
#
# Track frame offsets: 
#        150
#        14664
#        26933
#        57013
#        70041
#        86787
#        98790
#        112440
#        123239
#        145468
#        156121
#
# Disc length: 2300 seconds
#
# Revision: 0
# Processed by: cddbd v1.5.2PL0 Copyright (c) Steve Scherf et al.
# Submitted via: ExactAudioCopy v0.95b3
#
DISCID=9e08fa0b
DTITLE=Flo and Eddie  - Illegal, Immoral and Fattening (1975)  FLAC
DYEAR=1900
DGENRE=
TTITLE0=Illegal, Immoral and Fattening
TTITLE1=Rebecca
TTITLE2=Kama Sutra Time
TTITLE3=The Sanzini Brothers Return
TTITLE4=Livin' In The Jungle
TTITLE5=Cheap
TTITLE6=The Kung Fu Killer
TTITLE7=Eddie, Are You Kidding?
TTITLE8=The Pop Star Massage Unit
TTITLE9=Let Me Make Love To You
TTITLE10=There's No Business Like Show Business
EXTD=
EXTT0=
EXTT1=
EXTT2=
EXTT3=
EXTT4=
EXTT5=
EXTT6=
EXTT7=
EXTT8=
EXTT9=
EXTT10=
PLAYORDER=
